<svg width="935" height="200" viewBox="0 0 935 200" fill="none" xmlns="http://www.w3.org/2000/svg">
<path fill-rule="evenodd" clip-rule="evenodd" d="M12 0H0V12V176H12V12L114 12V24L36 24L24 24V36V164V176H36H114H126V164L126 36H138L138 188H24V200H138H150V188V36V24L138 24H126L126 12V0H114H12ZM36 164H114L114 36L36 36V164Z" fill="url(#paint0_linear_11_32)"/>
<path d="M262.816 134.652C255.456 134.652 249.12 133.244 243.808 130.428C238.56 127.612 234.528 123.612 231.712 118.428C228.96 113.18 227.584 107.068 227.584 100.092C227.584 93.116 228.992 87.036 231.808 81.852C234.624 76.604 238.72 72.572 244.096 69.756C249.472 66.94 255.904 65.532 263.392 65.532C266.528 65.532 269.6 65.852 272.608 66.492C275.68 67.068 278.432 67.964 280.864 69.18V80.892H280.48C278.048 79.484 275.392 78.428 272.512 77.724C269.696 77.02 267.008 76.668 264.448 76.668C257.152 76.668 251.392 78.684 247.168 82.716C243.008 86.748 240.928 92.54 240.928 100.092C240.928 107.58 242.976 113.34 247.072 117.372C251.168 121.404 256.768 123.42 263.872 123.42C266.624 123.42 269.408 123.004 272.224 122.172C275.104 121.276 277.856 120.028 280.48 118.428H280.864V130.236C275.744 133.18 269.728 134.652 262.816 134.652ZM338.63 118.332H310.118L304.55 133.5H291.878L317.222 66.684H332.006L357.35 133.5H344.198L338.63 118.332ZM334.694 107.58L324.422 79.164L314.054 107.58H334.694ZM408.252 133.5L394.62 108.06H382.716V133.5H370.044V66.684H394.14C402.78 66.684 409.244 68.412 413.532 71.868C417.82 75.324 419.964 80.348 419.964 86.94C419.964 91.612 418.908 95.58 416.796 98.844C414.684 102.108 411.548 104.54 407.388 106.14L422.172 133.5H408.252ZM382.716 96.924H394.236C398.46 96.924 401.564 96.188 403.548 94.716C405.596 93.244 406.62 90.748 406.62 87.228C406.62 83.836 405.628 81.436 403.644 80.028C401.66 78.62 398.492 77.916 394.14 77.916H382.716V96.924ZM461.935 66.684C468.783 66.684 474.671 68.06 479.599 70.812C484.527 73.5 488.271 77.372 490.831 82.428C493.391 87.42 494.671 93.308 494.671 100.092C494.671 106.876 493.391 112.796 490.831 117.852C488.271 122.844 484.527 126.716 479.599 129.468C474.671 132.156 468.783 133.5 461.935 133.5H437.263V66.684H461.935ZM461.935 122.268C468.015 122.268 472.751 120.38 476.143 116.604C479.599 112.828 481.327 107.324 481.327 100.092C481.327 92.86 479.599 87.356 476.143 83.58C472.751 79.804 468.015 77.916 461.935 77.916H449.935V122.268H461.935ZM551.529 98.748C557.929 101.5 561.129 106.844 561.129 114.78C561.129 121.244 559.081 125.98 554.985 128.988C550.889 131.996 545.129 133.5 537.705 133.5H514.281V66.684H538.377C544.905 66.684 549.961 68.124 553.545 71.004C557.129 73.884 558.921 78.268 558.921 84.156C558.921 90.876 556.457 95.74 551.529 98.748ZM522.729 74.748V95.388H537.321C541.737 95.388 544.905 94.588 546.825 92.988C548.809 91.388 549.801 88.572 549.801 84.54C549.801 80.828 548.809 78.268 546.825 76.86C544.905 75.452 541.737 74.748 537.321 74.748H522.729ZM537.705 125.436C542.761 125.436 546.409 124.668 548.649 123.132C550.889 121.596 552.009 118.684 552.009 114.396C552.009 110.108 550.857 107.196 548.553 105.66C546.313 104.124 542.633 103.356 537.513 103.356H522.729V125.436H537.705ZM606.94 134.652C598.876 134.652 592.604 132.092 588.124 126.972C583.708 121.788 581.5 114.748 581.5 105.852V66.684H589.948V105.564C589.948 112.092 591.388 117.276 594.268 121.116C597.212 124.892 601.436 126.78 606.94 126.78C612.444 126.78 616.636 124.892 619.516 121.116C622.46 117.276 623.932 112.092 623.932 105.564V66.684H632.38V105.852C632.38 114.748 630.14 121.788 625.66 126.972C621.244 132.092 615.004 134.652 606.94 134.652ZM655.542 66.684H663.99V133.5H655.542V66.684ZM687.156 66.684H695.604V125.436H725.748V133.5H687.156V66.684ZM765.404 66.684C775.324 66.684 782.908 69.628 788.156 75.516C793.404 81.404 796.028 89.596 796.028 100.092C796.028 110.588 793.404 118.78 788.156 124.668C782.908 130.556 775.324 133.5 765.404 133.5H742.844V66.684H765.404ZM766.076 125.436C772.988 125.436 778.172 123.196 781.628 118.716C785.148 114.172 786.908 107.964 786.908 100.092C786.908 92.22 785.148 86.044 781.628 81.564C778.172 77.02 772.988 74.748 766.076 74.748H751.292V125.436H766.076ZM826.198 74.748V95.868H855.478V103.548H826.198V125.436H857.59V133.5H817.75V66.684H857.59V74.748H826.198ZM917.46 133.5L903.924 107.292H902.964H887.604V133.5H879.156V66.684H901.812C909.812 66.684 915.764 68.38 919.668 71.772C923.572 75.1 925.524 79.996 925.524 86.46C925.524 91.26 924.468 95.324 922.356 98.652C920.244 101.98 917.14 104.348 913.044 105.756L927.636 133.5H917.46ZM901.908 99.324C906.9 99.324 910.548 98.364 912.852 96.444C915.22 94.46 916.404 91.132 916.404 86.46C916.404 82.172 915.22 79.164 912.852 77.436C910.548 75.644 906.868 74.748 901.812 74.748H887.604V99.324H901.908Z" fill="#57335F"/>
<defs>
<linearGradient id="paint0_linear_11_32" x1="-6" y1="207" x2="175" y2="-25.5" gradientUnits="userSpaceOnUse">
<stop stop-color="#D6006D"/>
<stop offset="0.572917" stop-color="#881F64"/>
<stop offset="1" stop-color="#2B445A"/>
</linearGradient>
</defs>
</svg>
